<mxfile host="Electron" modified="2023-05-12T15:56:20.339Z" agent="Mozilla/5.0 (Windows NT 10.0; Win64; x64) AppleWebKit/537.36 (KHTML, like Gecko) draw.io/21.2.8 Chrome/112.0.5615.165 Electron/24.2.0 Safari/537.36" etag="5U8AUhLpE2uMlx1LE8i7" version="21.2.8" type="device">
  <diagram name="Page-1" id="NoCxAhey6gdjr6q5JVB9">
    <mxGraphModel dx="2690" dy="517" grid="1" gridSize="10" guides="1" tooltips="1" connect="1" arrows="1" fold="1" page="1" pageScale="1" pageWidth="827" pageHeight="1169" math="0" shadow="0">
      <root>
        <mxCell id="0" />
        <mxCell id="1" parent="0" />
        <mxCell id="viXMbbBj0Cj2xCmzuDsS-1" value="" style="swimlane;startSize=0;" parent="1" vertex="1">
          <mxGeometry x="114" y="90" width="616" height="1080" as="geometry" />
        </mxCell>
        <mxCell id="viXMbbBj0Cj2xCmzuDsS-11" value="invite account manager" style="ellipse;whiteSpace=wrap;html=1;" parent="viXMbbBj0Cj2xCmzuDsS-1" vertex="1">
          <mxGeometry x="16" y="30" width="134" height="80" as="geometry" />
        </mxCell>
        <mxCell id="viXMbbBj0Cj2xCmzuDsS-12" value="set daily reminders for accounting tasks" style="ellipse;whiteSpace=wrap;html=1;" parent="viXMbbBj0Cj2xCmzuDsS-1" vertex="1">
          <mxGeometry x="166" y="30" width="134" height="80" as="geometry" />
        </mxCell>
        <mxCell id="viXMbbBj0Cj2xCmzuDsS-13" value="categorize expenses" style="ellipse;whiteSpace=wrap;html=1;" parent="viXMbbBj0Cj2xCmzuDsS-1" vertex="1">
          <mxGeometry x="316" y="30" width="134" height="80" as="geometry" />
        </mxCell>
        <mxCell id="viXMbbBj0Cj2xCmzuDsS-15" value="write labelled expenses" style="ellipse;whiteSpace=wrap;html=1;" parent="viXMbbBj0Cj2xCmzuDsS-1" vertex="1">
          <mxGeometry x="466" y="30" width="134" height="80" as="geometry" />
        </mxCell>
        <mxCell id="viXMbbBj0Cj2xCmzuDsS-16" value="see savings progress rate over a period of time" style="ellipse;whiteSpace=wrap;html=1;" parent="viXMbbBj0Cj2xCmzuDsS-1" vertex="1">
          <mxGeometry x="16" y="130" width="134" height="80" as="geometry" />
        </mxCell>
        <mxCell id="viXMbbBj0Cj2xCmzuDsS-20" value="update expenses labels" style="ellipse;whiteSpace=wrap;html=1;" parent="viXMbbBj0Cj2xCmzuDsS-1" vertex="1">
          <mxGeometry x="166" y="130" width="134" height="80" as="geometry" />
        </mxCell>
        <mxCell id="viXMbbBj0Cj2xCmzuDsS-21" value="set fixed expenses for the month" style="ellipse;whiteSpace=wrap;html=1;" parent="viXMbbBj0Cj2xCmzuDsS-1" vertex="1">
          <mxGeometry x="316" y="130" width="134" height="80" as="geometry" />
        </mxCell>
        <mxCell id="viXMbbBj0Cj2xCmzuDsS-23" value="see current month balance" style="ellipse;whiteSpace=wrap;html=1;" parent="viXMbbBj0Cj2xCmzuDsS-1" vertex="1">
          <mxGeometry x="466" y="130" width="134" height="80" as="geometry" />
        </mxCell>
        <mxCell id="viXMbbBj0Cj2xCmzuDsS-25" value="set monthly savings habits objectives" style="ellipse;whiteSpace=wrap;html=1;" parent="viXMbbBj0Cj2xCmzuDsS-1" vertex="1">
          <mxGeometry x="16" y="230" width="134" height="80" as="geometry" />
        </mxCell>
        <mxCell id="viXMbbBj0Cj2xCmzuDsS-26" value="assess monthly savings &lt;br&gt;habits objectives" style="ellipse;whiteSpace=wrap;html=1;" parent="viXMbbBj0Cj2xCmzuDsS-1" vertex="1">
          <mxGeometry x="166" y="230" width="134" height="80" as="geometry" />
        </mxCell>
        <mxCell id="viXMbbBj0Cj2xCmzuDsS-30" value="set monthly savings goals" style="ellipse;whiteSpace=wrap;html=1;" parent="viXMbbBj0Cj2xCmzuDsS-1" vertex="1">
          <mxGeometry x="316" y="230" width="134" height="80" as="geometry" />
        </mxCell>
        <mxCell id="viXMbbBj0Cj2xCmzuDsS-33" value="wire month savings to a savings account" style="ellipse;whiteSpace=wrap;html=1;" parent="viXMbbBj0Cj2xCmzuDsS-1" vertex="1">
          <mxGeometry x="466" y="230" width="134" height="80" as="geometry" />
        </mxCell>
        <mxCell id="viXMbbBj0Cj2xCmzuDsS-34" value="predict amount of business taxes" style="ellipse;whiteSpace=wrap;html=1;" parent="viXMbbBj0Cj2xCmzuDsS-1" vertex="1">
          <mxGeometry x="16" y="330" width="134" height="80" as="geometry" />
        </mxCell>
        <mxCell id="viXMbbBj0Cj2xCmzuDsS-36" value="login" style="ellipse;whiteSpace=wrap;html=1;" parent="viXMbbBj0Cj2xCmzuDsS-1" vertex="1">
          <mxGeometry x="166" y="330" width="134" height="80" as="geometry" />
        </mxCell>
        <mxCell id="viXMbbBj0Cj2xCmzuDsS-37" value="see week expenses by category and label" style="ellipse;whiteSpace=wrap;html=1;" parent="viXMbbBj0Cj2xCmzuDsS-1" vertex="1">
          <mxGeometry x="326" y="330" width="134" height="80" as="geometry" />
        </mxCell>
        <mxCell id="viXMbbBj0Cj2xCmzuDsS-38" value="see day total expenses" style="ellipse;whiteSpace=wrap;html=1;" parent="viXMbbBj0Cj2xCmzuDsS-1" vertex="1">
          <mxGeometry x="476" y="330" width="134" height="80" as="geometry" />
        </mxCell>
        <mxCell id="viXMbbBj0Cj2xCmzuDsS-44" value="see end-of-month balance sheet" style="ellipse;whiteSpace=wrap;html=1;" parent="viXMbbBj0Cj2xCmzuDsS-1" vertex="1">
          <mxGeometry x="16" y="430" width="134" height="80" as="geometry" />
        </mxCell>
        <mxCell id="viXMbbBj0Cj2xCmzuDsS-48" value="receive &quot;money hacks&quot; advice" style="ellipse;whiteSpace=wrap;html=1;" parent="viXMbbBj0Cj2xCmzuDsS-1" vertex="1">
          <mxGeometry x="166" y="430" width="134" height="80" as="geometry" />
        </mxCell>
        <mxCell id="viXMbbBj0Cj2xCmzuDsS-49" value="give &quot;money hacks&quot; advice" style="ellipse;whiteSpace=wrap;html=1;" parent="viXMbbBj0Cj2xCmzuDsS-1" vertex="1">
          <mxGeometry x="326" y="430" width="134" height="80" as="geometry" />
        </mxCell>
        <mxCell id="viXMbbBj0Cj2xCmzuDsS-50" value="update basic necessities list" style="ellipse;whiteSpace=wrap;html=1;" parent="viXMbbBj0Cj2xCmzuDsS-1" vertex="1">
          <mxGeometry x="476" y="430" width="134" height="80" as="geometry" />
        </mxCell>
        <mxCell id="viXMbbBj0Cj2xCmzuDsS-53" value="update 30 days wishlist" style="ellipse;whiteSpace=wrap;html=1;" parent="viXMbbBj0Cj2xCmzuDsS-1" vertex="1">
          <mxGeometry x="16" y="540" width="134" height="80" as="geometry" />
        </mxCell>
        <mxCell id="viXMbbBj0Cj2xCmzuDsS-55" value="set desired rate for a given expense" style="ellipse;whiteSpace=wrap;html=1;" parent="viXMbbBj0Cj2xCmzuDsS-1" vertex="1">
          <mxGeometry x="176" y="540" width="134" height="80" as="geometry" />
        </mxCell>
        <mxCell id="viXMbbBj0Cj2xCmzuDsS-57" value="compare offerings for a given expense" style="ellipse;whiteSpace=wrap;html=1;" parent="viXMbbBj0Cj2xCmzuDsS-1" vertex="1">
          <mxGeometry x="326" y="540" width="134" height="80" as="geometry" />
        </mxCell>
        <mxCell id="viXMbbBj0Cj2xCmzuDsS-58" value="predict interest income" style="ellipse;whiteSpace=wrap;html=1;" parent="viXMbbBj0Cj2xCmzuDsS-1" vertex="1">
          <mxGeometry x="476" y="540" width="134" height="80" as="geometry" />
        </mxCell>
        <mxCell id="viXMbbBj0Cj2xCmzuDsS-59" value="plan maintenance costs" style="ellipse;whiteSpace=wrap;html=1;" parent="viXMbbBj0Cj2xCmzuDsS-1" vertex="1">
          <mxGeometry x="16" y="650" width="134" height="80" as="geometry" />
        </mxCell>
        <mxCell id="viXMbbBj0Cj2xCmzuDsS-60" value="bad expense post mortem" style="ellipse;whiteSpace=wrap;html=1;" parent="viXMbbBj0Cj2xCmzuDsS-1" vertex="1">
          <mxGeometry x="176" y="650" width="134" height="80" as="geometry" />
        </mxCell>
        <mxCell id="viXMbbBj0Cj2xCmzuDsS-61" value="bad expense post mortem" style="ellipse;whiteSpace=wrap;html=1;" parent="viXMbbBj0Cj2xCmzuDsS-1" vertex="1">
          <mxGeometry x="332" y="650" width="134" height="80" as="geometry" />
        </mxCell>
        <mxCell id="cqvKQBKsSfuc3WfX1_7b-1" value="see annual punctual &lt;br&gt;expenses report" style="ellipse;whiteSpace=wrap;html=1;" parent="viXMbbBj0Cj2xCmzuDsS-1" vertex="1">
          <mxGeometry x="476" y="650" width="134" height="80" as="geometry" />
        </mxCell>
        <mxCell id="cqvKQBKsSfuc3WfX1_7b-3" value="access money self-assessment notes" style="ellipse;whiteSpace=wrap;html=1;" parent="viXMbbBj0Cj2xCmzuDsS-1" vertex="1">
          <mxGeometry x="16" y="760" width="134" height="80" as="geometry" />
        </mxCell>
        <mxCell id="cqvKQBKsSfuc3WfX1_7b-5" value="see annual fixed expenses report" style="ellipse;whiteSpace=wrap;html=1;" parent="viXMbbBj0Cj2xCmzuDsS-1" vertex="1">
          <mxGeometry x="176" y="760" width="134" height="80" as="geometry" />
        </mxCell>
        <mxCell id="cqvKQBKsSfuc3WfX1_7b-7" value="see annual paid taxes report" style="ellipse;whiteSpace=wrap;html=1;" parent="viXMbbBj0Cj2xCmzuDsS-1" vertex="1">
          <mxGeometry x="326" y="760" width="134" height="80" as="geometry" />
        </mxCell>
        <mxCell id="cqvKQBKsSfuc3WfX1_7b-9" value="see annual savings report" style="ellipse;whiteSpace=wrap;html=1;" parent="viXMbbBj0Cj2xCmzuDsS-1" vertex="1">
          <mxGeometry x="466" y="760" width="134" height="80" as="geometry" />
        </mxCell>
        <mxCell id="cqvKQBKsSfuc3WfX1_7b-11" value="track debts" style="ellipse;whiteSpace=wrap;html=1;" parent="viXMbbBj0Cj2xCmzuDsS-1" vertex="1">
          <mxGeometry x="16" y="850" width="134" height="80" as="geometry" />
        </mxCell>
        <mxCell id="QWbqs0dP-nniWicZrUFR-1" value="see avg of an expense category/label for a given time frame" style="ellipse;whiteSpace=wrap;html=1;" parent="viXMbbBj0Cj2xCmzuDsS-1" vertex="1">
          <mxGeometry x="176" y="850" width="134" height="80" as="geometry" />
        </mxCell>
        <mxCell id="QWbqs0dP-nniWicZrUFR-2" value="plan future known expenses" style="ellipse;whiteSpace=wrap;html=1;" parent="viXMbbBj0Cj2xCmzuDsS-1" vertex="1">
          <mxGeometry x="326" y="850" width="134" height="80" as="geometry" />
        </mxCell>
        <mxCell id="coCUdXWiDwFQQTuaxmBG-1" value="see available money for the week" style="ellipse;whiteSpace=wrap;html=1;" parent="viXMbbBj0Cj2xCmzuDsS-1" vertex="1">
          <mxGeometry x="466" y="850" width="134" height="80" as="geometry" />
        </mxCell>
        <mxCell id="uxNnKJ0_HsT0NQXPC0Wo-2" value="set emergency fund goal" style="ellipse;whiteSpace=wrap;html=1;" parent="viXMbbBj0Cj2xCmzuDsS-1" vertex="1">
          <mxGeometry x="16" y="960" width="134" height="80" as="geometry" />
        </mxCell>
        <mxCell id="Zw6b2eBSrAPllGsQIf47-1" value="calculate compound interest for a given account" style="ellipse;whiteSpace=wrap;html=1;" parent="viXMbbBj0Cj2xCmzuDsS-1" vertex="1">
          <mxGeometry x="176" y="960" width="134" height="80" as="geometry" />
        </mxCell>
        <mxCell id="viXMbbBj0Cj2xCmzuDsS-3" value="&lt;b style=&quot;&quot;&gt;&lt;font style=&quot;font-size: 18px;&quot;&gt;&lt;u&gt;kakebo.yactouat.com&lt;/u&gt;&lt;/font&gt;&lt;/b&gt;" style="text;html=1;strokeColor=none;fillColor=none;align=center;verticalAlign=middle;whiteSpace=wrap;rounded=0;" parent="1" vertex="1">
          <mxGeometry x="304" y="60" width="220" height="30" as="geometry" />
        </mxCell>
        <mxCell id="viXMbbBj0Cj2xCmzuDsS-5" value="account owner" style="shape=umlActor;verticalLabelPosition=bottom;verticalAlign=top;html=1;outlineConnect=0;" parent="1" vertex="1">
          <mxGeometry x="10" y="200" width="30" height="60" as="geometry" />
        </mxCell>
        <mxCell id="viXMbbBj0Cj2xCmzuDsS-6" value="account advisor" style="shape=umlActor;verticalLabelPosition=bottom;verticalAlign=top;html=1;outlineConnect=0;" parent="1" vertex="1">
          <mxGeometry x="780" y="200" width="30" height="60" as="geometry" />
        </mxCell>
        <mxCell id="viXMbbBj0Cj2xCmzuDsS-14" value="&lt;div style=&quot;&quot;&gt;&lt;span style=&quot;background-color: initial;&quot;&gt;&lt;b&gt;&lt;font color=&quot;#000000&quot;&gt;there are 4 categories of expenses:&lt;/font&gt;&lt;/b&gt;&lt;/span&gt;&lt;/div&gt;&lt;div style=&quot;&quot;&gt;&lt;ul&gt;&lt;li&gt;&lt;span style=&quot;background-color: initial;&quot;&gt;&lt;b&gt;&lt;font color=&quot;#000000&quot;&gt;basic necessities&lt;/font&gt;&lt;/b&gt;&lt;/span&gt;&lt;/li&gt;&lt;li&gt;&lt;span style=&quot;background-color: initial;&quot;&gt;&lt;b&gt;&lt;font color=&quot;#000000&quot;&gt;optional&lt;/font&gt;&lt;/b&gt;&lt;/span&gt;&lt;/li&gt;&lt;li&gt;&lt;span style=&quot;background-color: initial;&quot;&gt;&lt;b&gt;&lt;font color=&quot;#000000&quot;&gt;cultural and free time&lt;/font&gt;&lt;/b&gt;&lt;/span&gt;&lt;/li&gt;&lt;li&gt;&lt;span style=&quot;background-color: initial;&quot;&gt;&lt;b&gt;&lt;font color=&quot;#000000&quot;&gt;extras and unexpected expenses&lt;/font&gt;&lt;/b&gt;&lt;/span&gt;&lt;/li&gt;&lt;/ul&gt;&lt;/div&gt;" style="strokeWidth=1;shadow=0;dashed=0;align=left;html=1;shape=mxgraph.mockup.text.stickyNote2;fontColor=#666666;mainText=;fontSize=17;whiteSpace=wrap;fillColor=#ffffcc;strokeColor=#F62E00;verticalAlign=top;spacingTop=19;" parent="1" vertex="1">
          <mxGeometry x="-370" y="20" width="340" height="200" as="geometry" />
        </mxCell>
        <mxCell id="viXMbbBj0Cj2xCmzuDsS-18" value="&lt;div style=&quot;&quot;&gt;&lt;font color=&quot;#000000&quot;&gt;&lt;b&gt;users should not be able to copy-paste values when writing expenses, as it is a necessary process to consciously input them&lt;/b&gt;&lt;/font&gt;&lt;/div&gt;" style="strokeWidth=1;shadow=0;dashed=0;align=left;html=1;shape=mxgraph.mockup.text.stickyNote2;fontColor=#666666;mainText=;fontSize=17;whiteSpace=wrap;fillColor=#ffffcc;strokeColor=#F62E00;verticalAlign=top;spacingTop=19;" parent="1" vertex="1">
          <mxGeometry x="-370" y="230" width="340" height="130" as="geometry" />
        </mxCell>
        <mxCell id="viXMbbBj0Cj2xCmzuDsS-19" value="&lt;div style=&quot;&quot;&gt;&lt;font color=&quot;#000000&quot;&gt;&lt;b&gt;each expense item has a unique label&lt;/b&gt;&lt;/font&gt;&lt;/div&gt;" style="strokeWidth=1;shadow=0;dashed=0;align=left;html=1;shape=mxgraph.mockup.text.stickyNote2;fontColor=#666666;mainText=;fontSize=17;whiteSpace=wrap;fillColor=#ffffcc;strokeColor=#F62E00;verticalAlign=top;spacingTop=19;" parent="1" vertex="1">
          <mxGeometry x="-370" y="390" width="340" height="70" as="geometry" />
        </mxCell>
        <mxCell id="viXMbbBj0Cj2xCmzuDsS-22" value="&lt;div style=&quot;&quot;&gt;&lt;font color=&quot;#000000&quot;&gt;&lt;b&gt;setting fixed expenses for the month should be done at the 1st occurence of app&#39; usage of the month and should not be editable for the whole month&lt;/b&gt;&lt;/font&gt;&lt;/div&gt;" style="strokeWidth=1;shadow=0;dashed=0;align=left;html=1;shape=mxgraph.mockup.text.stickyNote2;fontColor=#666666;mainText=;fontSize=17;whiteSpace=wrap;fillColor=#ffffcc;strokeColor=#F62E00;verticalAlign=top;spacingTop=19;" parent="1" vertex="1">
          <mxGeometry x="-370" y="480" width="340" height="130" as="geometry" />
        </mxCell>
        <mxCell id="viXMbbBj0Cj2xCmzuDsS-24" value="&lt;div style=&quot;&quot;&gt;&lt;font color=&quot;#000000&quot;&gt;&lt;b&gt;monthly balance has a dedicated view, which contains:&lt;/b&gt;&lt;/font&gt;&lt;/div&gt;&lt;div style=&quot;&quot;&gt;&lt;ul&gt;&lt;li&gt;&lt;font color=&quot;#000000&quot;&gt;&lt;b&gt;income (with date, label, and amount fields)&lt;/b&gt;&lt;/font&gt;&lt;/li&gt;&lt;li&gt;&lt;font color=&quot;#000000&quot;&gt;&lt;b&gt;total income&lt;/b&gt;&lt;/font&gt;&lt;/li&gt;&lt;li&gt;&lt;font color=&quot;#000000&quot;&gt;&lt;b&gt;fixed expenses (with label and amount fields)&lt;/b&gt;&lt;/font&gt;&lt;/li&gt;&lt;li&gt;&lt;font color=&quot;#000000&quot;&gt;&lt;b&gt;total expenses&lt;/b&gt;&lt;/font&gt;&lt;/li&gt;&lt;/ul&gt;&lt;/div&gt;" style="strokeWidth=1;shadow=0;dashed=0;align=left;html=1;shape=mxgraph.mockup.text.stickyNote2;fontColor=#666666;mainText=;fontSize=17;whiteSpace=wrap;fillColor=#ffffcc;strokeColor=#F62E00;verticalAlign=top;spacingTop=19;" parent="1" vertex="1">
          <mxGeometry x="-370" y="640" width="340" height="240" as="geometry" />
        </mxCell>
        <mxCell id="viXMbbBj0Cj2xCmzuDsS-27" value="&lt;div style=&quot;&quot;&gt;&lt;font color=&quot;#000000&quot;&gt;&lt;b&gt;monthly savings habits objectives are assessed at the end of the month&lt;/b&gt;&lt;/font&gt;&lt;/div&gt;" style="strokeWidth=1;shadow=0;dashed=0;align=left;html=1;shape=mxgraph.mockup.text.stickyNote2;fontColor=#666666;mainText=;fontSize=17;whiteSpace=wrap;fillColor=#ffffcc;strokeColor=#F62E00;verticalAlign=top;spacingTop=19;" parent="1" vertex="1">
          <mxGeometry x="-750" y="30" width="340" height="70" as="geometry" />
        </mxCell>
        <mxCell id="viXMbbBj0Cj2xCmzuDsS-28" value="&lt;div style=&quot;&quot;&gt;&lt;font color=&quot;#000000&quot;&gt;&lt;b&gt;previous monthly savings habits objectives, as well as the means to accomplish them, are shown to the user at the beginning of the month, when he sets the new objectives&lt;/b&gt;&lt;/font&gt;&lt;/div&gt;" style="strokeWidth=1;shadow=0;dashed=0;align=left;html=1;shape=mxgraph.mockup.text.stickyNote2;fontColor=#666666;mainText=;fontSize=17;whiteSpace=wrap;fillColor=#ffffcc;strokeColor=#F62E00;verticalAlign=top;spacingTop=19;" parent="1" vertex="1">
          <mxGeometry x="-750" y="120" width="340" height="150" as="geometry" />
        </mxCell>
        <mxCell id="viXMbbBj0Cj2xCmzuDsS-29" value="&lt;div style=&quot;&quot;&gt;&lt;font color=&quot;#000000&quot;&gt;&lt;b&gt;monthly savings objectives input contains means to achieve them&lt;/b&gt;&lt;/font&gt;&lt;/div&gt;" style="strokeWidth=1;shadow=0;dashed=0;align=left;html=1;shape=mxgraph.mockup.text.stickyNote2;fontColor=#666666;mainText=;fontSize=17;whiteSpace=wrap;fillColor=#ffffcc;strokeColor=#F62E00;verticalAlign=top;spacingTop=19;" parent="1" vertex="1">
          <mxGeometry x="-753" y="295" width="340" height="70" as="geometry" />
        </mxCell>
        <mxCell id="viXMbbBj0Cj2xCmzuDsS-31" value="&lt;div style=&quot;&quot;&gt;&lt;font color=&quot;#000000&quot;&gt;&lt;b&gt;previous monthly savings goal is shown to the user&amp;nbsp;&lt;/b&gt;&lt;/font&gt;&lt;/div&gt;&lt;b style=&quot;border-color: var(--border-color); color: rgb(0, 0, 0);&quot;&gt;at the beginning of the month, when he sets the new goal&lt;/b&gt;" style="strokeWidth=1;shadow=0;dashed=0;align=left;html=1;shape=mxgraph.mockup.text.stickyNote2;fontColor=#666666;mainText=;fontSize=17;whiteSpace=wrap;fillColor=#ffffcc;strokeColor=#F62E00;verticalAlign=top;spacingTop=19;" parent="1" vertex="1">
          <mxGeometry x="-770" y="390" width="340" height="130" as="geometry" />
        </mxCell>
        <mxCell id="viXMbbBj0Cj2xCmzuDsS-32" value="&lt;div style=&quot;&quot;&gt;&lt;span style=&quot;background-color: initial;&quot;&gt;&lt;b&gt;&lt;font color=&quot;#000000&quot;&gt;current month balance is displayed as broken down into:&lt;/font&gt;&lt;/b&gt;&lt;/span&gt;&lt;/div&gt;&lt;div style=&quot;&quot;&gt;&lt;ul&gt;&lt;li&gt;&lt;span style=&quot;background-color: initial;&quot;&gt;&lt;b&gt;&lt;font color=&quot;#000000&quot;&gt;total income&lt;/font&gt;&lt;/b&gt;&lt;/span&gt;&lt;/li&gt;&lt;li&gt;&lt;span style=&quot;background-color: initial;&quot;&gt;&lt;b&gt;&lt;font color=&quot;#000000&quot;&gt;fixed expenses total&lt;/font&gt;&lt;/b&gt;&lt;/span&gt;&lt;/li&gt;&lt;li&gt;&lt;font color=&quot;#000000&quot;&gt;&lt;b&gt;savings goal&lt;/b&gt;&lt;/font&gt;&lt;/li&gt;&lt;li&gt;&lt;font color=&quot;#000000&quot;&gt;&lt;b&gt;total available money&lt;/b&gt;&lt;/font&gt;&lt;/li&gt;&lt;/ul&gt;&lt;/div&gt;" style="strokeWidth=1;shadow=0;dashed=0;align=left;html=1;shape=mxgraph.mockup.text.stickyNote2;fontColor=#666666;mainText=;fontSize=17;whiteSpace=wrap;fillColor=#ffffcc;strokeColor=#F62E00;verticalAlign=top;spacingTop=19;" parent="1" vertex="1">
          <mxGeometry x="-770" y="550" width="340" height="200" as="geometry" />
        </mxCell>
        <mxCell id="viXMbbBj0Cj2xCmzuDsS-35" value="&lt;div style=&quot;&quot;&gt;&lt;span style=&quot;background-color: initial;&quot;&gt;&lt;b&gt;&lt;font color=&quot;#000000&quot;&gt;for starters, daily reminders are:&lt;/font&gt;&lt;/b&gt;&lt;/span&gt;&lt;/div&gt;&lt;div style=&quot;&quot;&gt;&lt;ul&gt;&lt;li&gt;&lt;font color=&quot;#000000&quot;&gt;&lt;b&gt;in app&#39;&lt;/b&gt;&lt;/font&gt;&lt;/li&gt;&lt;li&gt;&lt;font color=&quot;#000000&quot;&gt;&lt;b&gt;via mail&lt;/b&gt;&lt;/font&gt;&lt;/li&gt;&lt;/ul&gt;&lt;div&gt;&lt;font color=&quot;#000000&quot;&gt;&lt;b&gt;they should be sent to be processed during the evening&lt;/b&gt;&lt;/font&gt;&lt;/div&gt;&lt;/div&gt;" style="strokeWidth=1;shadow=0;dashed=0;align=left;html=1;shape=mxgraph.mockup.text.stickyNote2;fontColor=#666666;mainText=;fontSize=17;whiteSpace=wrap;fillColor=#ffffcc;strokeColor=#F62E00;verticalAlign=top;spacingTop=19;" parent="1" vertex="1">
          <mxGeometry x="-770" y="770" width="340" height="180" as="geometry" />
        </mxCell>
        <mxCell id="viXMbbBj0Cj2xCmzuDsS-39" value="&lt;div style=&quot;&quot;&gt;&lt;font color=&quot;#000000&quot;&gt;&lt;b&gt;writing non-fixed expenses should only be available in the weekly view&lt;/b&gt;&lt;/font&gt;&lt;/div&gt;" style="strokeWidth=1;shadow=0;dashed=0;align=left;html=1;shape=mxgraph.mockup.text.stickyNote2;fontColor=#666666;mainText=;fontSize=17;whiteSpace=wrap;fillColor=#ffffcc;strokeColor=#F62E00;verticalAlign=top;spacingTop=19;" parent="1" vertex="1">
          <mxGeometry x="-370" y="900" width="340" height="100" as="geometry" />
        </mxCell>
        <mxCell id="viXMbbBj0Cj2xCmzuDsS-40" value="&lt;div style=&quot;&quot;&gt;&lt;font color=&quot;#000000&quot;&gt;&lt;b&gt;there is abundant microcopy so that the user understands what&#39;s going on&lt;/b&gt;&lt;/font&gt;&lt;/div&gt;" style="strokeWidth=1;shadow=0;dashed=0;align=left;html=1;shape=mxgraph.mockup.text.stickyNote2;fontColor=#666666;mainText=;fontSize=17;whiteSpace=wrap;fillColor=#ffffcc;strokeColor=#F62E00;verticalAlign=top;spacingTop=19;" parent="1" vertex="1">
          <mxGeometry x="-770" y="980" width="340" height="100" as="geometry" />
        </mxCell>
        <mxCell id="viXMbbBj0Cj2xCmzuDsS-41" value="&lt;div style=&quot;&quot;&gt;&lt;font color=&quot;#000000&quot;&gt;&lt;b&gt;weekly view shows current available money&lt;/b&gt;&lt;/font&gt;&lt;/div&gt;" style="strokeWidth=1;shadow=0;dashed=0;align=left;html=1;shape=mxgraph.mockup.text.stickyNote2;fontColor=#666666;mainText=;fontSize=17;whiteSpace=wrap;fillColor=#ffffcc;strokeColor=#F62E00;verticalAlign=top;spacingTop=19;" parent="1" vertex="1">
          <mxGeometry x="-370" y="1010" width="340" height="100" as="geometry" />
        </mxCell>
        <mxCell id="viXMbbBj0Cj2xCmzuDsS-42" value="&lt;div style=&quot;&quot;&gt;&lt;font color=&quot;#000000&quot;&gt;&lt;b&gt;weeks are numbered in weekly view and the month is displayed&lt;/b&gt;&lt;/font&gt;&lt;/div&gt;" style="strokeWidth=1;shadow=0;dashed=0;align=left;html=1;shape=mxgraph.mockup.text.stickyNote2;fontColor=#666666;mainText=;fontSize=17;whiteSpace=wrap;fillColor=#ffffcc;strokeColor=#F62E00;verticalAlign=top;spacingTop=19;" parent="1" vertex="1">
          <mxGeometry x="-1110" y="20" width="340" height="100" as="geometry" />
        </mxCell>
        <mxCell id="viXMbbBj0Cj2xCmzuDsS-43" value="&lt;div style=&quot;&quot;&gt;&lt;font color=&quot;#000000&quot;&gt;&lt;b&gt;weekly view shows expenses summary by category/label with subtotals and total&lt;/b&gt;&lt;/font&gt;&lt;/div&gt;" style="strokeWidth=1;shadow=0;dashed=0;align=left;html=1;shape=mxgraph.mockup.text.stickyNote2;fontColor=#666666;mainText=;fontSize=17;whiteSpace=wrap;fillColor=#ffffcc;strokeColor=#F62E00;verticalAlign=top;spacingTop=19;" parent="1" vertex="1">
          <mxGeometry x="-1120" y="140" width="340" height="100" as="geometry" />
        </mxCell>
        <mxCell id="viXMbbBj0Cj2xCmzuDsS-45" value="&lt;div style=&quot;&quot;&gt;&lt;font color=&quot;#000000&quot;&gt;&lt;b&gt;end of month balance sheet contains:&lt;/b&gt;&lt;/font&gt;&lt;/div&gt;&lt;div style=&quot;&quot;&gt;&lt;ul&gt;&lt;li&gt;&lt;font color=&quot;#000000&quot;&gt;&lt;b&gt;total expenses by category/week with total for each categ&lt;/b&gt;&lt;/font&gt;&lt;/li&gt;&lt;li&gt;&lt;font color=&quot;#000000&quot;&gt;&lt;b&gt;total income&lt;/b&gt;&lt;/font&gt;&lt;/li&gt;&lt;li&gt;&lt;font color=&quot;#000000&quot;&gt;&lt;b&gt;fixed expenses (with label and amount fields and total)&lt;/b&gt;&lt;/font&gt;&lt;/li&gt;&lt;li&gt;&lt;font color=&quot;#000000&quot;&gt;&lt;b&gt;most expensive labels and categories&lt;/b&gt;&lt;/font&gt;&lt;/li&gt;&lt;li&gt;&lt;font color=&quot;#000000&quot;&gt;&lt;b&gt;survey that asks if the result is surprising to the user and what expenses he could have avoided&lt;/b&gt;&lt;/font&gt;&lt;/li&gt;&lt;li&gt;&lt;font color=&quot;#000000&quot;&gt;&lt;b&gt;weekly expenses totals&lt;/b&gt;&lt;/font&gt;&lt;/li&gt;&lt;li&gt;&lt;font color=&quot;#000000&quot;&gt;&lt;b&gt;start-of-the-month available money&lt;/b&gt;&lt;/font&gt;&lt;/li&gt;&lt;li&gt;&lt;font color=&quot;#000000&quot;&gt;&lt;b&gt;total savings&lt;/b&gt;&lt;/font&gt;&lt;/li&gt;&lt;li&gt;&lt;font color=&quot;#000000&quot;&gt;&lt;b&gt;whether the user feels he has accomplished his objectives&lt;/b&gt;&lt;/font&gt;&lt;/li&gt;&lt;li&gt;&lt;font color=&quot;#000000&quot;&gt;&lt;b&gt;a suggestion for the user to treat himself with a choice between reasonable expenses&lt;/b&gt;&lt;/font&gt;&lt;/li&gt;&lt;li&gt;&lt;font color=&quot;#000000&quot;&gt;&lt;b&gt;a survey that asks the user what has not worked in savings effort&lt;/b&gt;&lt;/font&gt;&lt;/li&gt;&lt;/ul&gt;&lt;/div&gt;" style="strokeWidth=1;shadow=0;dashed=0;align=left;html=1;shape=mxgraph.mockup.text.stickyNote2;fontColor=#666666;mainText=;fontSize=17;whiteSpace=wrap;fillColor=#ffffcc;strokeColor=#F62E00;verticalAlign=top;spacingTop=45;" parent="1" vertex="1">
          <mxGeometry x="-1450" y="275" width="670" height="395" as="geometry" />
        </mxCell>
        <mxCell id="viXMbbBj0Cj2xCmzuDsS-46" value="&lt;div style=&quot;&quot;&gt;&lt;font color=&quot;#000000&quot;&gt;&lt;b&gt;previous end-of-month balance sheet survey is shown to the user&amp;nbsp;&lt;/b&gt;&lt;/font&gt;&lt;/div&gt;&lt;b style=&quot;border-color: var(--border-color); color: rgb(0, 0, 0);&quot;&gt;at the beginning of the month, when he sets the new monthly savings goal&lt;/b&gt;" style="strokeWidth=1;shadow=0;dashed=0;align=left;html=1;shape=mxgraph.mockup.text.stickyNote2;fontColor=#666666;mainText=;fontSize=17;whiteSpace=wrap;fillColor=#ffffcc;strokeColor=#F62E00;verticalAlign=top;spacingTop=19;" parent="1" vertex="1">
          <mxGeometry x="-1120" y="795" width="340" height="130" as="geometry" />
        </mxCell>
        <mxCell id="viXMbbBj0Cj2xCmzuDsS-47" value="&lt;div style=&quot;&quot;&gt;&lt;font color=&quot;#000000&quot;&gt;&lt;b&gt;setting monthly savings goals and objectives should not be editable&lt;/b&gt;&lt;/font&gt;&lt;/div&gt;" style="strokeWidth=1;shadow=0;dashed=0;align=left;html=1;shape=mxgraph.mockup.text.stickyNote2;fontColor=#666666;mainText=;fontSize=17;whiteSpace=wrap;fillColor=#ffffcc;strokeColor=#F62E00;verticalAlign=top;spacingTop=19;" parent="1" vertex="1">
          <mxGeometry x="-1130" y="985" width="340" height="90" as="geometry" />
        </mxCell>
        <mxCell id="viXMbbBj0Cj2xCmzuDsS-51" value="&lt;div style=&quot;&quot;&gt;&lt;font color=&quot;#000000&quot;&gt;&lt;b&gt;user feedback whenever a basic necessity expense was not written in the dedicated list beforehand&lt;/b&gt;&lt;/font&gt;&lt;/div&gt;" style="strokeWidth=1;shadow=0;dashed=0;align=left;html=1;shape=mxgraph.mockup.text.stickyNote2;fontColor=#666666;mainText=;fontSize=17;whiteSpace=wrap;fillColor=#ffffcc;strokeColor=#F62E00;verticalAlign=top;spacingTop=19;" parent="1" vertex="1">
          <mxGeometry x="-1480" y="25" width="340" height="100" as="geometry" />
        </mxCell>
        <mxCell id="viXMbbBj0Cj2xCmzuDsS-52" value="&lt;div style=&quot;&quot;&gt;&lt;font color=&quot;#000000&quot;&gt;&lt;b&gt;money hacks are shown to the user whenever he signs in for the first time of the day&lt;/b&gt;&lt;/font&gt;&lt;/div&gt;" style="strokeWidth=1;shadow=0;dashed=0;align=left;html=1;shape=mxgraph.mockup.text.stickyNote2;fontColor=#666666;mainText=;fontSize=17;whiteSpace=wrap;fillColor=#ffffcc;strokeColor=#F62E00;verticalAlign=top;spacingTop=19;" parent="1" vertex="1">
          <mxGeometry x="-1480" y="145" width="340" height="100" as="geometry" />
        </mxCell>
        <mxCell id="viXMbbBj0Cj2xCmzuDsS-54" value="&lt;div style=&quot;&quot;&gt;&lt;font color=&quot;#000000&quot;&gt;&lt;b&gt;user feedback whenever a non-basic necessity expense was not written in the 30 days wishlist beforehand&lt;/b&gt;&lt;/font&gt;&lt;/div&gt;" style="strokeWidth=1;shadow=0;dashed=0;align=left;html=1;shape=mxgraph.mockup.text.stickyNote2;fontColor=#666666;mainText=;fontSize=17;whiteSpace=wrap;fillColor=#ffffcc;strokeColor=#F62E00;verticalAlign=top;spacingTop=19;" parent="1" vertex="1">
          <mxGeometry x="-1570" y="720" width="340" height="100" as="geometry" />
        </mxCell>
        <mxCell id="viXMbbBj0Cj2xCmzuDsS-56" value="&lt;div style=&quot;&quot;&gt;&lt;font color=&quot;#000000&quot;&gt;&lt;b&gt;&quot;set desired rate for an expense&quot;, for instance &quot;I wish to go to the restaurant once a week&quot; + feedback&lt;/b&gt;&lt;/font&gt;&lt;/div&gt;" style="strokeWidth=1;shadow=0;dashed=0;align=left;html=1;shape=mxgraph.mockup.text.stickyNote2;fontColor=#666666;mainText=;fontSize=17;whiteSpace=wrap;fillColor=#ffffcc;strokeColor=#F62E00;verticalAlign=top;spacingTop=19;" parent="1" vertex="1">
          <mxGeometry x="-1570" y="860" width="340" height="100" as="geometry" />
        </mxCell>
        <mxCell id="cqvKQBKsSfuc3WfX1_7b-2" value="&lt;div style=&quot;&quot;&gt;&lt;span style=&quot;background-color: initial;&quot;&gt;&lt;b&gt;&lt;font color=&quot;#000000&quot;&gt;&lt;br&gt;&lt;/font&gt;&lt;/b&gt;&lt;/span&gt;&lt;/div&gt;&lt;div style=&quot;&quot;&gt;&lt;span style=&quot;background-color: initial;&quot;&gt;&lt;b&gt;&lt;font color=&quot;#000000&quot;&gt;yearly punctual expenses report contains:&lt;/font&gt;&lt;/b&gt;&lt;/span&gt;&lt;/div&gt;&lt;div style=&quot;&quot;&gt;&lt;ul&gt;&lt;li&gt;&lt;font color=&quot;#000000&quot;&gt;&lt;b&gt;totals per month/category with subtotals and grand total&lt;/b&gt;&lt;/font&gt;&lt;/li&gt;&lt;li&gt;&lt;font color=&quot;#000000&quot;&gt;&lt;b&gt;asks the user which month was the hardest financially and why&lt;/b&gt;&lt;/font&gt;&lt;/li&gt;&lt;li&gt;&lt;font color=&quot;#000000&quot;&gt;&lt;b&gt;asks which month was the easiest financially and why&lt;/b&gt;&lt;/font&gt;&lt;/li&gt;&lt;li&gt;&lt;font color=&quot;#000000&quot;&gt;&lt;b&gt;categories percentage&lt;/b&gt;&lt;/font&gt;&lt;/li&gt;&lt;li&gt;&lt;font color=&quot;#000000&quot;&gt;&lt;b&gt;asks the user if he was aware that he spends so much in a given category&lt;/b&gt;&lt;/font&gt;&lt;/li&gt;&lt;li&gt;&lt;font color=&quot;#000000&quot;&gt;&lt;b&gt;asks the highest categories, in termes of expenses, constitute a new habit, and invite him to reflect on the causes&lt;/b&gt;&lt;/font&gt;&lt;/li&gt;&lt;li&gt;&lt;font color=&quot;#000000&quot;&gt;&lt;b&gt;asks the user if he expects some categories to grow and why&lt;/b&gt;&lt;/font&gt;&lt;/li&gt;&lt;li&gt;&lt;font color=&quot;#000000&quot;&gt;&lt;b&gt;asks the user what expenses he can suppress next year&lt;/b&gt;&lt;/font&gt;&lt;/li&gt;&lt;li&gt;&lt;font color=&quot;#000000&quot;&gt;&lt;b&gt;asks the user what expenses he wishes to invest more in next year&lt;/b&gt;&lt;/font&gt;&lt;/li&gt;&lt;/ul&gt;&lt;/div&gt;" style="strokeWidth=1;shadow=0;dashed=0;align=left;html=1;shape=mxgraph.mockup.text.stickyNote2;fontColor=#666666;mainText=;fontSize=17;whiteSpace=wrap;fillColor=#ffffcc;strokeColor=#F62E00;verticalAlign=top;spacingTop=25;" parent="1" vertex="1">
          <mxGeometry x="880" y="20" width="700" height="330" as="geometry" />
        </mxCell>
        <mxCell id="cqvKQBKsSfuc3WfX1_7b-4" value="&lt;div style=&quot;&quot;&gt;&lt;font color=&quot;#000000&quot;&gt;&lt;b&gt;&lt;br&gt;&lt;/b&gt;&lt;/font&gt;&lt;/div&gt;&lt;div style=&quot;&quot;&gt;&lt;font color=&quot;#000000&quot;&gt;&lt;b&gt;each survey input should not be editable and user is always reminded of that, with an incitation of filling the surveys in a calm and relaxed setting&lt;/b&gt;&lt;/font&gt;&lt;/div&gt;" style="strokeWidth=1;shadow=0;dashed=0;align=left;html=1;shape=mxgraph.mockup.text.stickyNote2;fontColor=#666666;mainText=;fontSize=17;whiteSpace=wrap;fillColor=#ffffcc;strokeColor=#F62E00;verticalAlign=top;spacingTop=19;" parent="1" vertex="1">
          <mxGeometry x="880" y="410" width="640" height="140" as="geometry" />
        </mxCell>
        <mxCell id="cqvKQBKsSfuc3WfX1_7b-6" value="&lt;div style=&quot;&quot;&gt;&lt;span style=&quot;background-color: initial;&quot;&gt;&lt;b&gt;&lt;font color=&quot;#000000&quot;&gt;&lt;br&gt;&lt;/font&gt;&lt;/b&gt;&lt;/span&gt;&lt;/div&gt;&lt;div style=&quot;&quot;&gt;&lt;span style=&quot;background-color: initial;&quot;&gt;&lt;b&gt;&lt;font color=&quot;#000000&quot;&gt;yearly fixed expenses report contains:&lt;/font&gt;&lt;/b&gt;&lt;/span&gt;&lt;/div&gt;&lt;div style=&quot;&quot;&gt;&lt;ul&gt;&lt;li style=&quot;border-color: var(--border-color);&quot;&gt;&lt;font style=&quot;border-color: var(--border-color);&quot; color=&quot;#000000&quot;&gt;&lt;b style=&quot;border-color: var(--border-color);&quot;&gt;totals per reference period/fixed expense with subtotals and grand total&lt;/b&gt;&lt;/font&gt;&lt;/li&gt;&lt;li style=&quot;border-color: var(--border-color);&quot;&gt;&lt;font style=&quot;border-color: var(--border-color);&quot; color=&quot;#000000&quot;&gt;&lt;b style=&quot;border-color: var(--border-color);&quot;&gt;average per month for fixed expenses&lt;/b&gt;&lt;/font&gt;&lt;/li&gt;&lt;li&gt;&lt;font color=&quot;#000000&quot;&gt;&lt;b&gt;asks the user if he was aware that he spends so much in a given category&lt;/b&gt;&lt;/font&gt;&lt;/li&gt;&lt;li&gt;&lt;font color=&quot;#000000&quot;&gt;&lt;b&gt;invite the user to compare other offerings for a given fixed expense&lt;/b&gt;&lt;/font&gt;&lt;/li&gt;&lt;/ul&gt;&lt;/div&gt;" style="strokeWidth=1;shadow=0;dashed=0;align=left;html=1;shape=mxgraph.mockup.text.stickyNote2;fontColor=#666666;mainText=;fontSize=17;whiteSpace=wrap;fillColor=#ffffcc;strokeColor=#F62E00;verticalAlign=top;spacingTop=25;" parent="1" vertex="1">
          <mxGeometry x="891" y="600" width="700" height="210" as="geometry" />
        </mxCell>
        <mxCell id="cqvKQBKsSfuc3WfX1_7b-8" value="&lt;div style=&quot;&quot;&gt;&lt;span style=&quot;background-color: initial;&quot;&gt;&lt;b&gt;&lt;font color=&quot;#000000&quot;&gt;&lt;br&gt;&lt;/font&gt;&lt;/b&gt;&lt;/span&gt;&lt;/div&gt;&lt;div style=&quot;&quot;&gt;&lt;span style=&quot;background-color: initial;&quot;&gt;&lt;b&gt;&lt;font color=&quot;#000000&quot;&gt;yearly paid taxes report contains:&lt;/font&gt;&lt;/b&gt;&lt;/span&gt;&lt;/div&gt;&lt;div style=&quot;&quot;&gt;&lt;ul&gt;&lt;li style=&quot;border-color: var(--border-color);&quot;&gt;&lt;font color=&quot;#000000&quot;&gt;&lt;b&gt;each paid taxe (label, date, amount) + yearly total&lt;/b&gt;&lt;/font&gt;&lt;/li&gt;&lt;/ul&gt;&lt;/div&gt;" style="strokeWidth=1;shadow=0;dashed=0;align=left;html=1;shape=mxgraph.mockup.text.stickyNote2;fontColor=#666666;mainText=;fontSize=17;whiteSpace=wrap;fillColor=#ffffcc;strokeColor=#F62E00;verticalAlign=top;spacingTop=25;" parent="1" vertex="1">
          <mxGeometry x="891" y="840" width="700" height="160" as="geometry" />
        </mxCell>
        <mxCell id="cqvKQBKsSfuc3WfX1_7b-10" value="&lt;div style=&quot;&quot;&gt;&lt;span style=&quot;background-color: initial;&quot;&gt;&lt;b&gt;&lt;font color=&quot;#000000&quot;&gt;&lt;br&gt;&lt;/font&gt;&lt;/b&gt;&lt;/span&gt;&lt;/div&gt;&lt;div style=&quot;&quot;&gt;&lt;span style=&quot;background-color: initial;&quot;&gt;&lt;b&gt;&lt;font color=&quot;#000000&quot;&gt;yearly savings report contains:&lt;/font&gt;&lt;/b&gt;&lt;/span&gt;&lt;/div&gt;&lt;div style=&quot;&quot;&gt;&lt;ul&gt;&lt;li style=&quot;border-color: var(--border-color);&quot;&gt;&lt;font style=&quot;border-color: var(--border-color);&quot; color=&quot;#000000&quot;&gt;&lt;b style=&quot;border-color: var(--border-color);&quot;&gt;savings total per month + grand total&lt;/b&gt;&lt;/font&gt;&lt;/li&gt;&lt;li style=&quot;border-color: var(--border-color);&quot;&gt;&lt;font color=&quot;#000000&quot;&gt;&lt;b&gt;asks the user what he has learned this year with the kakebo&lt;/b&gt;&lt;/font&gt;&lt;/li&gt;&lt;li style=&quot;border-color: var(--border-color);&quot;&gt;&lt;font color=&quot;#000000&quot;&gt;&lt;b&gt;asks the user if he managed money better this years and if he&#39;s satisfied&lt;/b&gt;&lt;/font&gt;&lt;/li&gt;&lt;li style=&quot;border-color: var(--border-color);&quot;&gt;&lt;font color=&quot;#000000&quot;&gt;&lt;b&gt;asks the user what to do with the saved money: buy something special ? invest ? both ?&lt;/b&gt;&lt;/font&gt;&lt;/li&gt;&lt;/ul&gt;&lt;/div&gt;" style="strokeWidth=1;shadow=0;dashed=0;align=left;html=1;shape=mxgraph.mockup.text.stickyNote2;fontColor=#666666;mainText=;fontSize=17;whiteSpace=wrap;fillColor=#ffffcc;strokeColor=#F62E00;verticalAlign=top;spacingTop=25;" parent="1" vertex="1">
          <mxGeometry x="880" y="1020" width="700" height="210" as="geometry" />
        </mxCell>
        <mxCell id="EaQdm7PKb1510PqhCvCN-1" style="edgeStyle=orthogonalEdgeStyle;rounded=0;orthogonalLoop=1;jettySize=auto;html=1;exitX=0.5;exitY=1;exitDx=0;exitDy=0;" parent="1" source="viXMbbBj0Cj2xCmzuDsS-1" target="viXMbbBj0Cj2xCmzuDsS-1" edge="1">
          <mxGeometry relative="1" as="geometry" />
        </mxCell>
        <mxCell id="EaQdm7PKb1510PqhCvCN-2" style="edgeStyle=orthogonalEdgeStyle;rounded=0;orthogonalLoop=1;jettySize=auto;html=1;exitX=0.5;exitY=1;exitDx=0;exitDy=0;" parent="1" source="viXMbbBj0Cj2xCmzuDsS-1" target="viXMbbBj0Cj2xCmzuDsS-1" edge="1">
          <mxGeometry relative="1" as="geometry" />
        </mxCell>
        <mxCell id="uxNnKJ0_HsT0NQXPC0Wo-3" value="&lt;div style=&quot;&quot;&gt;&lt;font color=&quot;#000000&quot;&gt;&lt;b&gt;emergency fund that covers 6 months of expense should be highlighted as paramount&lt;/b&gt;&lt;/font&gt;&lt;/div&gt;" style="strokeWidth=1;shadow=0;dashed=0;align=left;html=1;shape=mxgraph.mockup.text.stickyNote2;fontColor=#666666;mainText=;fontSize=17;whiteSpace=wrap;fillColor=#ffffcc;strokeColor=#F62E00;verticalAlign=top;spacingTop=19;" parent="1" vertex="1">
          <mxGeometry x="-370" y="1140" width="340" height="100" as="geometry" />
        </mxCell>
      </root>
    </mxGraphModel>
  </diagram>
</mxfile>
